# xmcd
#
# Track frame offsets:
#	150
#	12572
#	25105
#	37435
#	49825
#	63232
#	78000
#	88265
#	104142
#	116227
#	133830
#	146895
#
# Disc length: 2084 seconds
#
# Revision: 0
# Processed by: cddbd v1.5.2PL0 Copyright (c) Steve Scherf et al.
# Submitted via: audiograbber 1.83.01
#
DISCID=b508220c
DTITLE=Sylvie - English Born - Dixie Fried
DYEAR=1993
DGENRE=Country
TTITLE0=Itty Bitty Little Bitty Heartache
TTITLE1=Til I Get It Right
TTITLE2=California Side Of The Bed
TTITLE3=It's Too Soon To Know
TTITLE4=Tryin' To Get To You
TTITLE5=Kiss Your Baby Goodnight
TTITLE6=No Heartbreak Allowed
TTITLE7=You Two-Timed Me One Time Too Many
TTITLE8=I Didn't Wanna Boogie
TTITLE9=Hush Hush Maria
TTITLE10=English Born, Dixie Fried
TTITLE11=Broken Heart Attack
EXTD=
EXTT0=
EXTT1=
EXTT2=
EXTT3=
EXTT4=
EXTT5=
EXTT6=
EXTT7=
EXTT8=
EXTT9=
EXTT10=
EXTT11=
PLAYORDER=
